<svg width="28" height="19" viewBox="0 0 28 19" fill="none" xmlns="http://www.w3.org/2000/svg">
<path d="M26.5109 8.1455C26.0837 7.57841 24.4967 7.18791 23.8252 6.16738C23.1538 5.14684 22.6042 2.93675 20.8954 2.08756C19.1865 1.23838 15.9203 1 14.0553 1C12.1902 1 8.92635 1.23313 7.21516 2.08581C5.50397 2.9385 4.95669 5.14684 4.28527 6.16563C3.61385 7.18442 2.0268 7.57841 1.59959 8.1455C1.17237 8.7126 0.871631 12.2976 1.05464 14.0554C1.23765 15.8132 1.57919 16.853 1.57919 16.853H6.59153C7.41216 16.853 7.67909 16.5447 9.35764 16.3867C11.1994 16.2119 13.0062 16.1536 14.0553 16.1536C15.1044 16.1536 16.9694 16.2119 18.81 16.3867C20.4885 16.5458 20.7642 16.853 21.5761 16.853H26.5302C26.5302 16.853 26.8717 15.8132 27.0547 14.0554C27.2377 12.2976 26.9358 8.7126 26.5109 8.1455ZM22.448 16.853H25.7119V17.7855H22.448V16.853ZM2.39865 16.853H5.6625V17.7855H2.39865V16.853Z" stroke="#454545" stroke-linecap="round" stroke-linejoin="round"/>
<path d="M20.3773 12.491C20.0328 12.0929 18.9103 11.7607 17.4241 11.5381C15.9379 11.3154 15.3958 11.2577 14.067 11.2577C12.7381 11.2577 12.1337 11.3533 10.7093 11.5381C9.28486 11.7228 8.21537 12.0516 7.75668 12.491C7.06836 13.1578 8.07665 13.9061 8.86814 13.997C9.63514 14.0845 11.1686 14.0524 14.0734 14.0524C16.9782 14.0524 18.5117 14.0845 19.2787 13.997C20.069 13.9009 21.005 13.2044 20.3773 12.491ZM24.2881 8.63791C24.2848 8.59163 24.2646 8.54817 24.2312 8.5159C24.1979 8.48363 24.1538 8.46482 24.1074 8.46306C23.4191 8.43859 22.7203 8.48754 21.4806 8.85298C20.8481 9.03762 20.2542 9.33497 19.7274 9.73072C19.5946 9.83446 19.6418 10.1148 19.8085 10.1445C20.8303 10.2644 21.8582 10.3247 22.887 10.3252C23.5042 10.3252 24.1412 10.1504 24.2595 9.60017C24.3199 9.28294 24.3295 8.95816 24.2881 8.63791ZM3.82257 8.63791C3.82585 8.59163 3.8461 8.54817 3.87944 8.5159C3.91279 8.48363 3.95688 8.46482 4.00325 8.46306C4.69157 8.43859 5.39039 8.48754 6.63007 8.85298C7.26253 9.03762 7.85645 9.33497 8.38322 9.73072C8.51611 9.83446 8.4689 10.1148 8.30221 10.1445C7.28041 10.2644 6.2525 10.3247 5.2237 10.3252C4.60648 10.3252 3.96945 10.1504 3.85113 9.60017C3.79081 9.28294 3.78117 8.95816 3.82257 8.63791Z" fill="#454545"/>
<path d="M24.3129 5.6626H25.2454M2.86475 5.6626H3.79728M3.68071 6.76998C3.68071 6.76998 6.38213 6.07058 14.0551 6.07058C21.7281 6.07058 24.4295 6.76998 24.4295 6.76998" stroke="#454545" stroke-linecap="round" stroke-linejoin="round"/>
</svg>
