<svg width="6" height="22" viewBox="0 0 6 22" fill="none" xmlns="http://www.w3.org/2000/svg">
<path d="M19.8585 4.0769H2.93538C1.66087 4.0769 0.627686 5.11009 0.627686 6.3846V18.6923C0.627686 19.9668 1.66087 21 2.93538 21H19.8585C21.133 21 22.1661 19.9668 22.1661 18.6923V6.3846C22.1661 5.11009 21.133 4.0769 19.8585 4.0769Z" stroke="#454545" stroke-linejoin="round"/>
<path d="M6.01221 4.07692V2.53846C6.01221 2.13044 6.17429 1.73912 6.46281 1.4506C6.75133 1.16209 7.14264 1 7.55067 1H15.243C15.651 1 16.0423 1.16209 16.3308 1.4506C16.6194 1.73912 16.7814 2.13044 16.7814 2.53846V4.07692M11.3968 8.69231V16.3846M15.243 12.5385H7.55067" stroke="#454545" stroke-linecap="round" stroke-linejoin="round"/>
</svg>
