<svg width="25" height="22" viewBox="0 0 25 22" fill="none" xmlns="http://www.w3.org/2000/svg">
<path d="M8.27262 20.9999C8.77469 20.9999 9.18171 20.5929 9.18171 20.0909C9.18171 19.5888 8.77469 19.1818 8.27262 19.1818C7.77054 19.1818 7.36353 19.5888 7.36353 20.0909C7.36353 20.5929 7.77054 20.9999 8.27262 20.9999Z" stroke="#454545" stroke-linecap="round" stroke-linejoin="round"/>
<path d="M20.9999 20.9999C21.502 20.9999 21.909 20.5929 21.909 20.0909C21.909 19.5888 21.502 19.1818 20.9999 19.1818C20.4978 19.1818 20.0908 19.5888 20.0908 20.0909C20.0908 20.5929 20.4978 20.9999 20.9999 20.9999Z" stroke="#454545" stroke-linecap="round" stroke-linejoin="round"/>
<path d="M1 1H4.63636L7.36364 16.4545H21.9091" stroke="#454545" stroke-linecap="round" stroke-linejoin="round"/>
<path d="M7.36359 12.8182H21.5363C21.6414 12.8183 21.7433 12.7819 21.8247 12.7153C21.906 12.6487 21.9617 12.5559 21.9823 12.4529L23.6187 4.27105C23.6319 4.20507 23.6303 4.13699 23.614 4.07171C23.5977 4.00643 23.5671 3.94559 23.5244 3.89357C23.4818 3.84154 23.4281 3.79965 23.3672 3.77089C23.3064 3.74214 23.24 3.72725 23.1727 3.7273H5.54541" stroke="#454545" stroke-linecap="round" stroke-linejoin="round"/>
</svg>
