<svg width="21" height="22" viewBox="0 0 21 22" fill="none" xmlns="http://www.w3.org/2000/svg">
<path d="M6.71429 18.1429V21M2.42857 1H11C11.3789 1 11.7422 1.15051 12.0102 1.41842C12.2781 1.68633 12.4286 2.04969 12.4286 2.42857V20.8214C12.4286 20.8688 12.4098 20.9142 12.3763 20.9477C12.3428 20.9812 12.2974 21 12.25 21H1V2.42857C1 2.04969 1.15051 1.68633 1.41842 1.41842C1.68633 1.15051 2.04969 1 2.42857 1ZM13.1429 8.14286H18.1429C18.5217 8.14286 18.8851 8.29337 19.153 8.56128C19.4209 8.82919 19.5714 9.19255 19.5714 9.57143V21H12.4286V8.85714C12.4286 8.6677 12.5038 8.48602 12.6378 8.35207C12.7717 8.21811 12.9534 8.14286 13.1429 8.14286Z" stroke="#454545" stroke-linecap="round" stroke-linejoin="round"/>
<path d="M3.23563 18.8513C3.08769 18.8707 2.93741 18.8432 2.80588 18.7728C2.67435 18.7024 2.56817 18.5926 2.50224 18.4587C2.43631 18.3249 2.41394 18.1738 2.43828 18.0266C2.46261 17.8794 2.53243 17.7435 2.63792 17.638C2.74342 17.5325 2.8793 17.4627 3.02649 17.4383C3.17369 17.414 3.32481 17.4364 3.45864 17.5023C3.59248 17.5682 3.70231 17.6744 3.77273 17.806C3.84314 17.9375 3.8706 18.0878 3.85125 18.2357C3.83083 18.3918 3.75941 18.5368 3.64807 18.6481C3.53674 18.7595 3.39174 18.8309 3.23563 18.8513ZM3.23563 15.2799C3.08769 15.2992 2.93741 15.2718 2.80588 15.2014C2.67435 15.131 2.56817 15.0211 2.50224 14.8873C2.43631 14.7535 2.41394 14.6023 2.43828 14.4551C2.46261 14.3079 2.53243 14.1721 2.63792 14.0666C2.74342 13.9611 2.8793 13.8913 3.02649 13.8669C3.17369 13.8426 3.32481 13.865 3.45864 13.9309C3.59248 13.9968 3.70231 14.103 3.77273 14.2345C3.84314 14.3661 3.8706 14.5163 3.85125 14.6643C3.83083 14.8204 3.75941 14.9654 3.64807 15.0767C3.53674 15.188 3.39174 15.2595 3.23563 15.2799ZM3.23563 11.7085C3.08769 11.7278 2.93741 11.7004 2.80588 11.6299C2.67435 11.5595 2.56817 11.4497 2.50224 11.3159C2.43631 11.182 2.41394 11.0309 2.43828 10.8837C2.46261 10.7365 2.53243 10.6006 2.63792 10.4951C2.74342 10.3896 2.8793 10.3198 3.02649 10.2955C3.17369 10.2712 3.32481 10.2935 3.45864 10.3595C3.59248 10.4254 3.70231 10.5316 3.77273 10.6631C3.84314 10.7946 3.8706 10.9449 3.85125 11.0928C3.83083 11.249 3.75941 11.394 3.64807 11.5053C3.53674 11.6166 3.39174 11.688 3.23563 11.7085ZM3.23563 8.13704C3.08769 8.15638 2.93741 8.12892 2.80588 8.05851C2.67435 7.9881 2.56817 7.87826 2.50224 7.74443C2.43631 7.61059 2.41394 7.45947 2.43828 7.31228C2.46261 7.16508 2.53243 7.0292 2.63792 6.92371C2.74342 6.81821 2.8793 6.7484 3.02649 6.72406C3.17369 6.69973 3.32481 6.72209 3.45864 6.78802C3.59248 6.85395 3.70231 6.96013 3.77273 7.09167C3.84314 7.2232 3.8706 7.37348 3.85125 7.52141C3.83083 7.67753 3.75941 7.82253 3.64807 7.93386C3.53674 8.04519 3.39174 8.11662 3.23563 8.13704ZM3.23563 4.56561C3.08769 4.58495 2.93741 4.55749 2.80588 4.48708C2.67435 4.41667 2.56817 4.30684 2.50224 4.173C2.43631 4.03916 2.41394 3.88804 2.43828 3.74085C2.46261 3.59365 2.53243 3.45777 2.63792 3.35228C2.74342 3.24678 2.8793 3.17697 3.02649 3.15263C3.17369 3.1283 3.32481 3.15067 3.45864 3.21659C3.59248 3.28252 3.70231 3.38871 3.77273 3.52024C3.84314 3.65177 3.8706 3.80205 3.85125 3.94998C3.83083 4.1061 3.75941 4.2511 3.64807 4.36243C3.53674 4.47376 3.39174 4.54519 3.23563 4.56561ZM6.80706 15.2799C6.65912 15.2992 6.50884 15.2718 6.37731 15.2014C6.24578 15.131 6.1396 15.0211 6.07367 14.8873C6.00774 14.7535 5.98537 14.6023 6.00971 14.4551C6.03404 14.3079 6.10385 14.1721 6.20935 14.0666C6.31485 13.9611 6.45073 13.8913 6.59792 13.8669C6.74512 13.8426 6.89624 13.865 7.03007 13.9309C7.16391 13.9968 7.27374 14.103 7.34415 14.2345C7.41457 14.3661 7.44203 14.5163 7.42268 14.6643C7.40226 14.8204 7.33083 14.9654 7.2195 15.0767C7.10817 15.188 6.96317 15.2595 6.80706 15.2799ZM6.80706 11.7085C6.65912 11.7278 6.50884 11.7004 6.37731 11.6299C6.24578 11.5595 6.1396 11.4497 6.07367 11.3159C6.00774 11.182 5.98537 11.0309 6.00971 10.8837C6.03404 10.7365 6.10385 10.6006 6.20935 10.4951C6.31485 10.3896 6.45073 10.3198 6.59792 10.2955C6.74512 10.2712 6.89624 10.2935 7.03007 10.3595C7.16391 10.4254 7.27374 10.5316 7.34415 10.6631C7.41457 10.7946 7.44203 10.9449 7.42268 11.0928C7.40226 11.249 7.33083 11.394 7.2195 11.5053C7.10817 11.6166 6.96317 11.688 6.80706 11.7085ZM6.80706 8.13704C6.65912 8.15638 6.50884 8.12892 6.37731 8.05851C6.24578 7.9881 6.1396 7.87826 6.07367 7.74443C6.00774 7.61059 5.98537 7.45947 6.00971 7.31228C6.03404 7.16508 6.10385 7.0292 6.20935 6.92371C6.31485 6.81821 6.45073 6.7484 6.59792 6.72406C6.74512 6.69973 6.89624 6.72209 7.03007 6.78802C7.16391 6.85395 7.27374 6.96013 7.34415 7.09167C7.41457 7.2232 7.44203 7.37348 7.42268 7.52141C7.40226 7.67753 7.33083 7.82253 7.2195 7.93386C7.10817 8.04519 6.96317 8.11662 6.80706 8.13704ZM6.80706 4.56561C6.65912 4.58495 6.50884 4.55749 6.37731 4.48708C6.24578 4.41667 6.1396 4.30684 6.07367 4.173C6.00774 4.03916 5.98537 3.88804 6.00971 3.74085C6.03404 3.59365 6.10385 3.45777 6.20935 3.35228C6.31485 3.24678 6.45073 3.17697 6.59792 3.15263C6.74512 3.1283 6.89624 3.15067 7.03007 3.21659C7.16391 3.28252 7.27374 3.38871 7.34415 3.52024C7.41457 3.65177 7.44203 3.80205 7.42268 3.94998C7.40226 4.1061 7.33083 4.2511 7.2195 4.36243C7.10817 4.47376 6.96317 4.54519 6.80706 4.56561ZM10.3785 18.8513C10.2305 18.8707 10.0803 18.8432 9.94874 18.7728C9.81721 18.7024 9.71103 18.5926 9.6451 18.4587C9.57917 18.3249 9.5568 18.1738 9.58113 18.0266C9.60547 17.8794 9.67528 17.7435 9.78078 17.638C9.88627 17.5325 10.0222 17.4627 10.1694 17.4383C10.3165 17.414 10.4677 17.4364 10.6015 17.5023C10.7353 17.5682 10.8452 17.6744 10.9156 17.806C10.986 17.9375 11.0135 18.0878 10.9941 18.2357C10.9737 18.3918 10.9023 18.5368 10.7909 18.6481C10.6796 18.7595 10.5346 18.8309 10.3785 18.8513ZM10.3785 15.2799C10.2305 15.2992 10.0803 15.2718 9.94874 15.2014C9.81721 15.131 9.71103 15.0211 9.6451 14.8873C9.57917 14.7535 9.5568 14.6023 9.58113 14.4551C9.60547 14.3079 9.67528 14.1721 9.78078 14.0666C9.88627 13.9611 10.0222 13.8913 10.1694 13.8669C10.3165 13.8426 10.4677 13.865 10.6015 13.9309C10.7353 13.9968 10.8452 14.103 10.9156 14.2345C10.986 14.3661 11.0135 14.5163 10.9941 14.6643C10.9737 14.8204 10.9023 14.9654 10.7909 15.0767C10.6796 15.188 10.5346 15.2595 10.3785 15.2799ZM10.3785 11.7085C10.2305 11.7278 10.0803 11.7004 9.94874 11.6299C9.81721 11.5595 9.71103 11.4497 9.6451 11.3159C9.57917 11.182 9.5568 11.0309 9.58113 10.8837C9.60547 10.7365 9.67528 10.6006 9.78078 10.4951C9.88627 10.3896 10.0222 10.3198 10.1694 10.2955C10.3165 10.2712 10.4677 10.2935 10.6015 10.3595C10.7353 10.4254 10.8452 10.5316 10.9156 10.6631C10.986 10.7946 11.0135 10.9449 10.9941 11.0928C10.9737 11.249 10.9023 11.394 10.7909 11.5053C10.6796 11.6166 10.5346 11.688 10.3785 11.7085Z" fill="#454545"/>
<path d="M10.7917 7.93421C11.0697 7.65613 11.0686 7.20416 10.7891 6.92469C10.5097 6.64522 10.0577 6.64409 9.77962 6.92216C9.50155 7.20024 9.50268 7.65221 9.78215 7.93168C10.0616 8.21115 10.5136 8.21228 10.7917 7.93421Z" fill="#454545"/>
<path d="M10.3784 4.56561C10.2305 4.58495 10.0802 4.55749 9.9487 4.48708C9.81717 4.41667 9.71099 4.30684 9.64506 4.173C9.57913 4.03916 9.55676 3.88804 9.5811 3.74085C9.60543 3.59365 9.67525 3.45777 9.78074 3.35228C9.88624 3.24678 10.0221 3.17697 10.1693 3.15263C10.3165 3.1283 10.4676 3.15067 10.6015 3.21659C10.7353 3.28252 10.8451 3.38871 10.9155 3.52024C10.986 3.65177 11.0134 3.80205 10.9941 3.94998C10.9737 4.1061 10.9022 4.2511 10.7909 4.36243C10.6796 4.47376 10.5346 4.54519 10.3784 4.56561ZM16.7142 17.4286C16.5729 17.4286 16.4348 17.4704 16.3173 17.5489C16.1999 17.6274 16.1083 17.739 16.0542 17.8695C16.0002 18 15.986 18.1436 16.0136 18.2822C16.0412 18.4207 16.1092 18.548 16.2091 18.6479C16.309 18.7478 16.4363 18.8158 16.5748 18.8434C16.7134 18.871 16.857 18.8568 16.9875 18.8028C17.118 18.7487 17.2296 18.6571 17.3081 18.5397C17.3866 18.4222 17.4284 18.2841 17.4284 18.1428C17.4284 17.9534 17.3532 17.7717 17.2192 17.6378C17.0853 17.5038 16.9036 17.4286 16.7142 17.4286ZM16.7142 13.8571C16.5729 13.8571 16.4348 13.899 16.3173 13.9775C16.1999 14.056 16.1083 14.1675 16.0542 14.2981C16.0002 14.4286 15.986 14.5722 16.0136 14.7108C16.0412 14.8493 16.1092 14.9766 16.2091 15.0765C16.309 15.1764 16.4363 15.2444 16.5748 15.272C16.7134 15.2995 16.857 15.2854 16.9875 15.2313C17.118 15.1773 17.2296 15.0857 17.3081 14.9682C17.3866 14.8508 17.4284 14.7127 17.4284 14.5714C17.4284 14.382 17.3532 14.2003 17.2192 14.0663C17.0853 13.9324 16.9036 13.8571 16.7142 13.8571ZM16.7142 10.2857C16.5729 10.2857 16.4348 10.3276 16.3173 10.4061C16.1999 10.4846 16.1083 10.5961 16.0542 10.7266C16.0002 10.8572 15.986 11.0008 16.0136 11.1393C16.0412 11.2779 16.1092 11.4052 16.2091 11.5051C16.309 11.605 16.4363 11.673 16.5748 11.7005C16.7134 11.7281 16.857 11.714 16.9875 11.6599C17.118 11.6058 17.2296 11.5143 17.3081 11.3968C17.3866 11.2794 17.4284 11.1413 17.4284 11C17.4284 10.8105 17.3532 10.6289 17.2192 10.4949C17.0853 10.361 16.9036 10.2857 16.7142 10.2857ZM13.857 17.4286C13.7157 17.4286 13.5776 17.4704 13.4602 17.5489C13.3427 17.6274 13.2512 17.739 13.1971 17.8695C13.143 18 13.1289 18.1436 13.1565 18.2822C13.184 18.4207 13.252 18.548 13.3519 18.6479C13.4518 18.7478 13.5791 18.8158 13.7177 18.8434C13.8562 18.871 13.9998 18.8568 14.1304 18.8028C14.2609 18.7487 14.3724 18.6571 14.4509 18.5397C14.5294 18.4222 14.5713 18.2841 14.5713 18.1428C14.5713 17.9534 14.4961 17.7717 14.3621 17.6378C14.2281 17.5038 14.0465 17.4286 13.857 17.4286ZM13.857 13.8571C13.7157 13.8571 13.5776 13.899 13.4602 13.9775C13.3427 14.056 13.2512 14.1675 13.1971 14.2981C13.143 14.4286 13.1289 14.5722 13.1565 14.7108C13.184 14.8493 13.252 14.9766 13.3519 15.0765C13.4518 15.1764 13.5791 15.2444 13.7177 15.272C13.8562 15.2995 13.9998 15.2854 14.1304 15.2313C14.2609 15.1773 14.3724 15.0857 14.4509 14.9682C14.5294 14.8508 14.5713 14.7127 14.5713 14.5714C14.5713 14.382 14.4961 14.2003 14.3621 14.0663C14.2281 13.9324 14.0465 13.8571 13.857 13.8571ZM13.857 10.2857C13.7157 10.2857 13.5776 10.3276 13.4602 10.4061C13.3427 10.4846 13.2512 10.5961 13.1971 10.7266C13.143 10.8572 13.1289 11.0008 13.1565 11.1393C13.184 11.2779 13.252 11.4052 13.3519 11.5051C13.4518 11.605 13.5791 11.673 13.7177 11.7005C13.8562 11.7281 13.9998 11.714 14.1304 11.6599C14.2609 11.6058 14.3724 11.5143 14.4509 11.3968C14.5294 11.2794 14.5713 11.1413 14.5713 11C14.5713 10.8105 14.4961 10.6289 14.3621 10.4949C14.2281 10.361 14.0465 10.2857 13.857 10.2857Z" fill="#454545"/>
</svg>
