<svg width="22" height="22" viewBox="0 0 22 22" fill="none" xmlns="http://www.w3.org/2000/svg">
<path d="M2.13776 1.70264L18.5858 18.1507C18.8979 18.4628 19.0733 18.8861 19.0733 19.3275C19.0733 19.7689 18.8979 20.1922 18.5858 20.5043C18.2737 20.8163 17.8504 20.9916 17.409 20.9916C16.9677 20.9916 16.5444 20.8163 16.2322 20.5043L12.2143 16.4172C11.9513 16.1502 11.8038 15.7906 11.8036 15.4158V15.169C11.8036 14.9798 11.7661 14.7924 11.6931 14.6178C11.6201 14.4433 11.5132 14.2849 11.3786 14.152L10.8598 13.673C10.6837 13.5105 10.4695 13.3949 10.2371 13.3368C10.0046 13.2788 9.76123 13.2802 9.52942 13.3408C9.16386 13.4362 8.77971 13.4344 8.41509 13.3355C8.05046 13.2366 7.71804 13.044 7.45081 12.777L3.63689 8.9626C1.37435 6.70005 0.541747 3.28347 2.13776 1.70264Z" stroke="#282828" stroke-linejoin="round"/>
<path d="M17.4285 1L13.9798 4.44873C13.7144 4.71405 13.5039 5.02906 13.3603 5.37575C13.2166 5.72244 13.1427 6.09403 13.1427 6.4693V7.13271C13.1427 7.22657 13.1242 7.31951 13.0883 7.40623C13.0524 7.49294 12.9997 7.57172 12.9333 7.63807L12.4284 8.14299M13.857 9.57159L14.3619 9.06667C14.4283 9.00028 14.5071 8.94761 14.5938 8.91169C14.6805 8.87576 14.7734 8.85728 14.8673 8.85729H15.5307C15.906 8.85729 16.2776 8.78337 16.6242 8.63975C16.9709 8.49612 17.2859 8.2856 17.5513 8.02022L21 4.5715M19.2143 2.78575L15.6428 6.35724M8.49976 16.0003L4.04789 20.4772C3.71301 20.8119 3.25888 21 2.78537 21C2.31185 21 1.85772 20.8119 1.52284 20.4772C1.18807 20.1423 1 19.6881 1 19.2146C1 18.7411 1.18807 18.287 1.52284 17.9521L5.28541 14.2145" stroke="#282828" stroke-linecap="round" stroke-linejoin="round"/>
</svg>
